<mxfile host="app.diagrams.net" agent="Mozilla/5.0 (Windows NT 10.0; Win64; x64) AppleWebKit/537.36 (KHTML, like Gecko) Chrome/138.0.0.0 Safari/537.36" version="28.0.4">
  <diagram name="Page-1" id="m8liD7HMKUUjWRQe8MN4">
    <mxGraphModel dx="2063" dy="623" grid="1" gridSize="10" guides="1" tooltips="1" connect="1" arrows="1" fold="1" page="1" pageScale="1" pageWidth="850" pageHeight="1100" math="0" shadow="0">
      <root>
        <mxCell id="0" />
        <mxCell id="1" parent="0" />
        <mxCell id="Q3MAN3WcrOitLLpdYgAi-1" value="&lt;b&gt;MongoDB&lt;/b&gt;" style="shape=cylinder3;whiteSpace=wrap;html=1;boundedLbl=1;backgroundOutline=1;size=15;fillColor=#dae8fc;gradientColor=#7ea6e0;strokeColor=#6c8ebf;" parent="1" vertex="1">
          <mxGeometry x="480" y="150" width="60" height="80" as="geometry" />
        </mxCell>
        <mxCell id="Q3MAN3WcrOitLLpdYgAi-2" value="&lt;b&gt;DB Team&lt;/b&gt;" style="rounded=0;whiteSpace=wrap;html=1;fillColor=#d5e8d4;gradientColor=#97d077;strokeColor=#82b366;" parent="1" vertex="1">
          <mxGeometry x="150" y="90" width="120" height="60" as="geometry" />
        </mxCell>
        <mxCell id="Q3MAN3WcrOitLLpdYgAi-3" style="edgeStyle=orthogonalEdgeStyle;rounded=0;orthogonalLoop=1;jettySize=auto;html=1;entryX=0;entryY=0.5;entryDx=0;entryDy=0;entryPerimeter=0;" parent="1" source="Q3MAN3WcrOitLLpdYgAi-2" target="Q3MAN3WcrOitLLpdYgAi-1" edge="1">
          <mxGeometry relative="1" as="geometry" />
        </mxCell>
        <mxCell id="Q3MAN3WcrOitLLpdYgAi-4" value="&lt;b&gt;Catalogue&lt;/b&gt;" style="rounded=0;whiteSpace=wrap;html=1;fillColor=#f8cecc;gradientColor=#ea6b66;strokeColor=#b85450;" parent="1" vertex="1">
          <mxGeometry x="150" y="250" width="120" height="60" as="geometry" />
        </mxCell>
        <mxCell id="Q3MAN3WcrOitLLpdYgAi-5" style="edgeStyle=orthogonalEdgeStyle;rounded=0;orthogonalLoop=1;jettySize=auto;html=1;entryX=0;entryY=0.5;entryDx=0;entryDy=0;entryPerimeter=0;" parent="1" source="Q3MAN3WcrOitLLpdYgAi-4" target="Q3MAN3WcrOitLLpdYgAi-1" edge="1">
          <mxGeometry relative="1" as="geometry" />
        </mxCell>
        <mxCell id="Q3MAN3WcrOitLLpdYgAi-6" value="" style="rounded=0;whiteSpace=wrap;html=1;fillColor=#f5f5f5;gradientColor=#b3b3b3;strokeColor=#666666;" parent="1" vertex="1">
          <mxGeometry x="160" y="400" width="510" height="330" as="geometry" />
        </mxCell>
        <mxCell id="Q3MAN3WcrOitLLpdYgAi-7" value="" style="fontColor=#0066CC;verticalAlign=top;verticalLabelPosition=bottom;labelPosition=center;align=center;html=1;outlineConnect=0;fillColor=#CCCCCC;strokeColor=#6881B3;gradientColor=none;gradientDirection=north;strokeWidth=2;shape=mxgraph.networks.wireless_modem;" parent="1" vertex="1">
          <mxGeometry x="-80" y="490" width="100" height="85" as="geometry" />
        </mxCell>
        <mxCell id="Q3MAN3WcrOitLLpdYgAi-9" style="edgeStyle=orthogonalEdgeStyle;rounded=0;orthogonalLoop=1;jettySize=auto;html=1;entryX=-0.001;entryY=0.402;entryDx=0;entryDy=0;entryPerimeter=0;" parent="1" source="Q3MAN3WcrOitLLpdYgAi-7" target="Q3MAN3WcrOitLLpdYgAi-6" edge="1">
          <mxGeometry relative="1" as="geometry" />
        </mxCell>
        <mxCell id="Q3MAN3WcrOitLLpdYgAi-14" style="edgeStyle=orthogonalEdgeStyle;rounded=0;orthogonalLoop=1;jettySize=auto;html=1;entryX=0;entryY=0.5;entryDx=0;entryDy=0;" parent="1" source="Q3MAN3WcrOitLLpdYgAi-10" target="Q3MAN3WcrOitLLpdYgAi-12" edge="1">
          <mxGeometry relative="1" as="geometry" />
        </mxCell>
        <mxCell id="Q3MAN3WcrOitLLpdYgAi-15" style="edgeStyle=orthogonalEdgeStyle;rounded=0;orthogonalLoop=1;jettySize=auto;html=1;entryX=0;entryY=0.5;entryDx=0;entryDy=0;" parent="1" source="bKcT1fX7BORTLiFpCOxL-2" target="Q3MAN3WcrOitLLpdYgAi-13" edge="1">
          <mxGeometry relative="1" as="geometry" />
        </mxCell>
        <mxCell id="Q3MAN3WcrOitLLpdYgAi-10" value="" style="image;aspect=fixed;perimeter=ellipsePerimeter;html=1;align=center;shadow=0;dashed=0;spacingTop=3;image=img/lib/active_directory/modem.svg;" parent="1" vertex="1">
          <mxGeometry x="169.82" y="510" width="70.18" height="58.25" as="geometry" />
        </mxCell>
        <mxCell id="Q3MAN3WcrOitLLpdYgAi-11" value="&lt;b&gt;docker-0&lt;/b&gt;" style="text;html=1;align=center;verticalAlign=middle;resizable=0;points=[];autosize=1;strokeColor=none;fillColor=none;" parent="1" vertex="1">
          <mxGeometry x="160" y="575" width="70" height="30" as="geometry" />
        </mxCell>
        <mxCell id="Q3MAN3WcrOitLLpdYgAi-12" value="&lt;b&gt;MongoDB&lt;/b&gt;" style="rounded=0;whiteSpace=wrap;html=1;fillColor=#dae8fc;gradientColor=#7ea6e0;strokeColor=#6c8ebf;" parent="1" vertex="1">
          <mxGeometry x="425" y="420" width="120" height="60" as="geometry" />
        </mxCell>
        <mxCell id="Q3MAN3WcrOitLLpdYgAi-13" value="&lt;b&gt;Catalogue&lt;/b&gt;" style="rounded=0;whiteSpace=wrap;html=1;fillColor=#d5e8d4;gradientColor=#97d077;strokeColor=#82b366;" parent="1" vertex="1">
          <mxGeometry x="425" y="530" width="120" height="60" as="geometry" />
        </mxCell>
        <mxCell id="Q3MAN3WcrOitLLpdYgAi-16" value="&lt;b&gt;&lt;font style=&quot;font-size: 14px;&quot;&gt;172.17.0.3&lt;/font&gt;&lt;/b&gt;" style="text;html=1;align=center;verticalAlign=middle;resizable=0;points=[];autosize=1;strokeColor=none;fillColor=none;strokeWidth=2;" parent="1" vertex="1">
          <mxGeometry x="440" y="590" width="90" height="30" as="geometry" />
        </mxCell>
        <mxCell id="Q3MAN3WcrOitLLpdYgAi-17" value="&lt;font style=&quot;font-size: 14px;&quot;&gt;&lt;b&gt;172.17.0.2&lt;/b&gt;&lt;/font&gt;" style="text;html=1;align=center;verticalAlign=middle;resizable=0;points=[];autosize=1;strokeColor=none;fillColor=none;" parent="1" vertex="1">
          <mxGeometry x="440" y="480" width="90" height="30" as="geometry" />
        </mxCell>
        <mxCell id="Q3MAN3WcrOitLLpdYgAi-18" value="&lt;b&gt;&lt;font style=&quot;font-size: 14px;&quot;&gt;172.17.0.1&lt;/font&gt;&lt;/b&gt;" style="text;html=1;align=center;verticalAlign=middle;resizable=0;points=[];autosize=1;strokeColor=none;fillColor=none;" parent="1" vertex="1">
          <mxGeometry x="210" y="473.38" width="90" height="30" as="geometry" />
        </mxCell>
        <mxCell id="bKcT1fX7BORTLiFpCOxL-1" value="&lt;b&gt;roboshop&lt;/b&gt;" style="text;html=1;align=center;verticalAlign=middle;resizable=0;points=[];autosize=1;strokeColor=none;fillColor=none;" vertex="1" parent="1">
          <mxGeometry x="240" y="568.25" width="80" height="30" as="geometry" />
        </mxCell>
        <mxCell id="bKcT1fX7BORTLiFpCOxL-3" value="" style="edgeStyle=orthogonalEdgeStyle;rounded=0;orthogonalLoop=1;jettySize=auto;html=1;entryX=0;entryY=0.5;entryDx=0;entryDy=0;" edge="1" parent="1" source="Q3MAN3WcrOitLLpdYgAi-10" target="bKcT1fX7BORTLiFpCOxL-2">
          <mxGeometry relative="1" as="geometry">
            <mxPoint x="240" y="539" as="sourcePoint" />
            <mxPoint x="425" y="560" as="targetPoint" />
          </mxGeometry>
        </mxCell>
        <mxCell id="bKcT1fX7BORTLiFpCOxL-2" value="" style="image;aspect=fixed;perimeter=ellipsePerimeter;html=1;align=center;shadow=0;dashed=0;spacingTop=3;image=img/lib/active_directory/modem.svg;" vertex="1" parent="1">
          <mxGeometry x="249.82" y="510" width="70.18" height="58.25" as="geometry" />
        </mxCell>
      </root>
    </mxGraphModel>
  </diagram>
</mxfile>
